<svg xmlns="http://www.w3.org/2000/svg" version="1.1" xmlns:xlink="http://www.w3.org/1999/xlink" xmlns:svgjs="http://svgjs.dev/svgjs" width="2000" height="535" viewBox="0 0 2000 535"><g transform="matrix(1,0,0,1,-1.2121212121212466,0.34552240022537717)"><svg viewBox="0 0 396 106" data-background-color="#ffffff" preserveAspectRatio="xMidYMid meet" height="535" width="2000" xmlns="http://www.w3.org/2000/svg" xmlns:xlink="http://www.w3.org/1999/xlink"><g id="tight-bounds" transform="matrix(1,0,0,1,0.2400000000000091,-0.06845864378297506)"><svg viewBox="0 0 395.52 106.13691728756596" height="106.13691728756596" width="395.52"><g><svg viewBox="0 0 395.52 106.13691728756596" height="106.13691728756596" width="395.52"><g><svg viewBox="0 0 395.52 106.13691728756596" height="106.13691728756596" width="395.52"><g id="textblocktransform"><svg viewBox="0 0 395.52 106.13691728756596" height="106.13691728756596" width="395.52" id="textblock"><g><svg viewBox="0 0 395.52 69.74730616660656" height="69.74730616660656" width="395.52"><g transform="matrix(1,0,0,1,0,0)"><svg width="395.52" viewBox="1.67 -33.33 192.55 33.96" height="69.74730616660656" data-palette-color="#211951"><path d="M10-27.71L1.67-27.71 1.67-31.25 22.29-31.25 22.29-27.71 13.96-27.71 13.96 0 10 0 10-27.71ZM37.22 0.42L37.22 0.42Q33.96 0.42 31.37-1.04 28.78-2.5 27.31-5.02 25.83-7.53 25.83-10.63L25.83-10.63Q25.83-13.58 27.25-15.99 28.68-18.4 31.09-19.83 33.5-21.25 36.42-21.25L36.42-21.25Q39.3-21.25 41.7-19.88 44.09-18.51 45.52-16.18 46.94-13.85 46.94-10.9L46.94-10.9 46.94-9.38 33.33-9.38Q32.43-9.38 31.49-9.44 30.55-9.51 29.65-9.65L29.65-9.65Q30.03-6.88 32.17-5 34.3-3.13 37.25-3.13L37.25-3.13Q39.23-3.13 40.94-4.03 42.64-4.93 43.68-6.42L43.68-6.42 44.72-2.15Q43.23-0.94 41.3-0.26 39.37 0.42 37.22 0.42ZM29.55-12.19L29.55-12.19Q31.42-12.5 33.33-12.5L33.33-12.5 40.24-12.5Q41-12.5 41.75-12.45 42.5-12.4 43.26-12.33L43.26-12.33Q42.78-14.76 40.83-16.34 38.89-17.92 36.42-17.92L36.42-17.92Q33.89-17.92 31.98-16.23 30.07-14.55 29.55-12.19ZM61.52 0.42L61.52 0.42Q58.47 0.42 55.97-1.04 53.47-2.5 51.97-4.97 50.48-7.43 50.48-10.42L50.48-10.42Q50.48-13.4 51.97-15.87 53.47-18.33 55.97-19.79 58.47-21.25 61.52-21.25L61.52-21.25Q63.78-21.25 65.76-20.45 67.74-19.65 69.23-18.33L69.23-18.33 68.09-13.61Q67.22-15.35 65.46-16.53 63.71-17.71 61.49-17.71L61.49-17.71Q59.47-17.71 57.82-16.72 56.18-15.73 55.2-14.08 54.23-12.43 54.23-10.42L54.23-10.42Q54.23-8.44 55.2-6.77 56.18-5.1 57.82-4.11 59.47-3.13 61.49-3.13L61.49-3.13Q63.71-3.13 65.46-4.27 67.22-5.42 68.09-7.22L68.09-7.22 69.23-2.5Q67.74-1.18 65.76-0.38 63.78 0.42 61.52 0.42ZM77.56 0L73.81 0 73.81-33.33 77.56-33.33 77.56-17.88Q78.74-19.51 80.48-20.38 82.21-21.25 84.19-21.25L84.19-21.25Q86.42-21.25 88.31-20.16 90.2-19.06 91.38-17 92.56-14.93 92.56-11.98L92.56-11.98 92.56 0 88.81 0 88.81-11.46Q88.81-13.92 87.34-15.82 85.86-17.71 83.19-17.71L83.19-17.71Q81-17.71 79.28-16.13 77.56-14.55 77.56-11.56L77.56-11.56 77.56 0ZM113.84 0.63L113.84 0.63Q110.44 0.63 107.49-0.64 104.54-1.91 102.3-4.15 100.06-6.39 98.81-9.32 97.56-12.26 97.56-15.63L97.56-15.63Q97.56-18.99 98.83-21.93 100.09-24.86 102.33-27.1 104.57-29.34 107.52-30.61 110.48-31.88 113.88-31.88L113.88-31.88Q117.21-31.88 120.13-30.64 123.05-29.41 125.27-27.26L125.27-27.26 124.12-22.47Q122.52-25.03 119.83-26.58 117.14-28.13 113.88-28.13L113.88-28.13Q110.44-28.13 107.68-26.44 104.92-24.76 103.29-21.93 101.66-19.1 101.66-15.63L101.66-15.63Q101.66-12.22 103.27-9.38 104.89-6.53 107.65-4.83 110.41-3.13 113.84-3.13L113.84-3.13Q115.79-3.13 117.54-3.59 119.3-4.06 120.75-4.93L120.75-4.93 120.75-13.13 112.14-13.13 112.14-16.67 124.57-16.67 124.57-2.92Q122.46-1.15 119.66-0.26 116.87 0.63 113.84 0.63ZM141.38 0.42L141.38 0.42Q138.11 0.42 135.53-1.04 132.94-2.5 131.46-5.02 129.99-7.53 129.99-10.63L129.99-10.63Q129.99-13.58 131.41-15.99 132.83-18.4 135.25-19.83 137.66-21.25 140.58-21.25L140.58-21.25Q143.46-21.25 145.86-19.88 148.25-18.51 149.68-16.18 151.1-13.85 151.1-10.9L151.1-10.9 151.1-9.38 137.49-9.38Q136.58-9.38 135.65-9.44 134.71-9.51 133.81-9.65L133.81-9.65Q134.19-6.88 136.32-5 138.46-3.13 141.41-3.13L141.41-3.13Q143.39-3.13 145.09-4.03 146.79-4.93 147.83-6.42L147.83-6.42 148.88-2.15Q147.38-0.94 145.46-0.26 143.53 0.42 141.38 0.42ZM133.7-12.19L133.7-12.19Q135.58-12.5 137.49-12.5L137.49-12.5 144.4-12.5Q145.16-12.5 145.91-12.45 146.65-12.4 147.42-12.33L147.42-12.33Q146.93-14.76 144.99-16.34 143.04-17.92 140.58-17.92L140.58-17.92Q138.04-17.92 136.13-16.23 134.22-14.55 133.7-12.19ZM165.02 0.28L165.02 0.28Q162.17 0.28 159.81-1.16 157.45-2.6 156.04-5.03 154.64-7.47 154.64-10.42L154.64-10.42Q154.64-13.37 156.04-15.8 157.45-18.23 159.81-19.67 162.17-21.11 165.02-21.11L165.02-21.11Q167.17-21.11 169.06-20.31 170.96-19.51 172.35-18.09L172.35-18.09 172.35-20.83 175.82-20.83 175.82 0 172.35 0 172.35-2.74Q170.96-1.35 169.06-0.54 167.17 0.28 165.02 0.28ZM165.51-3.13L165.51-3.13Q167.49-3.13 169.1-4.11 170.71-5.1 171.67-6.75 172.62-8.4 172.62-10.42L172.62-10.42Q172.62-12.43 171.67-14.08 170.71-15.73 169.1-16.72 167.49-17.71 165.51-17.71L165.51-17.71Q163.53-17.71 161.91-16.72 160.3-15.73 159.34-14.08 158.39-12.43 158.39-10.42L158.39-10.42Q158.39-8.4 159.34-6.75 160.3-5.1 161.91-4.11 163.53-3.13 165.51-3.13ZM186.23 0L182.48 0 182.48-20.83 185.95-20.83 185.95-17.01Q187.07-18.85 188.91-19.95 190.75-21.04 193.28-21.04L193.28-21.04 194.22-17.29Q193.56-17.5 192.69-17.5L192.69-17.5Q189.77-17.5 188-15.64 186.23-13.78 186.23-10.35L186.23-10.35 186.23 0Z" opacity="1" transform="matrix(1,0,0,1,0,0)" fill="#211951" class="wordmark-text-0" data-fill-palette-color="primary" id="text-0"></path></svg></g></svg></g><g transform="matrix(1,0,0,1,207.648,86.21297121719438)"><svg viewBox="0 0 187.87199999999999 19.923946070371592" height="19.923946070371592" width="187.87199999999999"><g transform="matrix(1,0,0,1,0,0)"><svg width="187.87199999999999" viewBox="1.42 -33.75 422.31 44.79" height="19.923946070371592" data-palette-color="#836fff"><path d="M11.49 11.04L11.49 11.04Q9.06 11.04 6.93 10.33 4.79 9.62 3.19 8.4L3.19 8.4 4.55 2.88Q5.66 4.38 7.45 5.31 9.24 6.25 11.49 6.25L11.49 6.25Q14.76 6.25 16.63 4.38 18.51 2.5 18.51-0.49L18.51-0.49 18.51-2.22Q17.26-0.97 15.56-0.24 13.85 0.49 11.81 0.49L11.81 0.49Q8.96 0.49 6.6-0.99 4.24-2.47 2.83-4.95 1.42-7.43 1.42-10.42L1.42-10.42Q1.42-13.44 2.83-15.9 4.24-18.37 6.6-19.84 8.96-21.32 11.81-21.32L11.81-21.32Q13.85-21.32 15.59-20.59 17.33-19.86 18.54-18.58L18.54-18.58 18.54-20.83 23.33-20.83 23.33 0.21Q23.33 3.61 21.68 6.04 20.03 8.47 17.33 9.76 14.62 11.04 11.49 11.04ZM12.47-4.34L12.47-4.34Q14.13-4.34 15.47-5.17 16.81-6.01 17.6-7.38 18.4-8.75 18.4-10.42L18.4-10.42Q18.4-12.08 17.6-13.45 16.81-14.83 15.47-15.66 14.13-16.49 12.5-16.49L12.5-16.49Q10.83-16.49 9.5-15.66 8.16-14.83 7.36-13.45 6.56-12.08 6.56-10.42L6.56-10.42Q6.56-8.75 7.36-7.38 8.16-6.01 9.5-5.17 10.83-4.34 12.47-4.34ZM38.99 0.63L38.99 0.63Q35.55 0.63 32.9-0.83 30.24-2.29 28.76-4.84 27.29-7.4 27.29-10.63L27.29-10.63Q27.29-13.75 28.73-16.18 30.17-18.61 32.64-20.03 35.1-21.46 38.09-21.46L38.09-21.46Q41.14-21.46 43.56-20.07 45.97-18.68 47.39-16.27 48.82-13.85 48.82-10.8L48.82-10.8 48.82-8.82 35.87-8.82Q35-8.82 34.16-8.92 33.33-9.03 32.5-9.17L32.5-9.17Q32.91-6.91 34.69-5.47 36.46-4.03 39.13-4.03L39.13-4.03Q41.11-4.03 42.71-4.84 44.3-5.66 45.34-6.91L45.34-6.91 46.59-1.81Q45.03-0.59 43.09 0.02 41.14 0.63 38.99 0.63ZM32.36-12.53L32.36-12.53Q34.13-12.88 35.87-12.88L35.87-12.88 40.34-12.88Q41.28-12.88 42.12-12.83 42.95-12.78 43.71-12.6L43.71-12.6Q43.19-14.62 41.68-15.83 40.17-17.05 38.05-17.05L38.05-17.05Q35.97-17.05 34.44-15.8 32.91-14.55 32.36-12.53ZM61.8 0.49L61.8 0.49Q58.95 0.49 56.59-0.99 54.23-2.47 52.82-4.95 51.42-7.43 51.42-10.42L51.42-10.42Q51.42-13.44 52.82-15.9 54.23-18.37 56.59-19.84 58.95-21.32 61.8-21.32L61.8-21.32Q63.85-21.32 65.59-20.59 67.32-19.86 68.54-18.58L68.54-18.58 68.54-20.83 73.33-20.83 73.33 0 68.54 0 68.54-2.29Q67.32-1.01 65.59-0.26 63.85 0.49 61.8 0.49ZM62.46-4.34L62.46-4.34Q64.13-4.34 65.46-5.17 66.8-6.01 67.6-7.38 68.4-8.75 68.4-10.42L68.4-10.42Q68.4-12.08 67.6-13.45 66.8-14.83 65.46-15.66 64.13-16.49 62.5-16.49L62.5-16.49Q60.83-16.49 59.49-15.66 58.15-14.83 57.36-13.45 56.56-12.08 56.56-10.42L56.56-10.42Q56.56-8.75 57.36-7.38 58.15-6.01 59.49-5.17 60.83-4.34 62.46-4.34ZM83.88 0L78.43 0 78.43-20.83 83.36-20.83 83.36-17.19Q84.44-19.03 86.14-20.03 87.84-21.04 90.13-21.04L90.13-21.04 91.35-16.11Q90.69-16.32 89.85-16.32L89.85-16.32Q87.15-16.32 85.51-14.58 83.88-12.85 83.88-9.65L83.88-9.65 83.88 0ZM112.77 0.63L112.77 0.63Q110.58 0.63 108.63-0.45 106.69-1.53 105.51-3.56 104.33-5.59 104.33-8.51L104.33-8.51 104.33-20.83 109.78-20.83 109.78-9.24Q109.78-7.29 110.94-5.82 112.11-4.34 114.19-4.34L114.19-4.34Q115.93-4.34 117.28-5.57 118.63-6.81 118.63-9.13L118.63-9.13 118.63-20.83 124.12-20.83 124.12 0 119.12 0 119.12-2.5Q118.01-0.97 116.34-0.17 114.68 0.63 112.77 0.63ZM134.67 10.42L129.22 10.42 129.22-20.83 133.98-20.83 133.98-18.61Q135.26-19.9 136.96-20.61 138.67-21.32 140.68-21.32L140.68-21.32Q143.6-21.32 145.96-19.86 148.32-18.4 149.72-15.92 151.13-13.44 151.13-10.42L151.13-10.42Q151.13-7.43 149.72-4.95 148.32-2.47 145.96-0.99 143.6 0.49 140.68 0.49L140.68 0.49Q138.91 0.49 137.4-0.07 135.89-0.63 134.67-1.6L134.67-1.6 134.67 10.42ZM140.02-4.34L140.02-4.34Q141.69-4.34 143.02-5.17 144.36-6.01 145.16-7.38 145.96-8.75 145.96-10.42L145.96-10.42Q145.96-12.08 145.16-13.45 144.36-14.83 143.02-15.66 141.69-16.49 140.05-16.49L140.05-16.49Q138.39-16.49 137.05-15.66 135.71-14.83 134.92-13.45 134.12-12.08 134.12-10.42L134.12-10.42Q134.12-8.75 134.92-7.38 135.71-6.01 137.05-5.17 138.39-4.34 140.02-4.34ZM173.38 0L167.93 0 167.93-16.46 163.83-16.46 163.83-20.83 168.04-20.83 168.04-26.32Q168.04-29.97 170.15-31.86 172.27-33.75 175.36-33.75L175.36-33.75Q176.51-33.75 177.6-33.49 178.7-33.23 179.56-32.67L179.56-32.67 178.45-28.09Q177.31-29.44 175.78-29.44L175.78-29.44Q174.88-29.44 174.08-28.8 173.28-28.16 173.28-26.39L173.28-26.39 173.28-20.83 177.69-20.83 177.69-16.46 173.38-16.46 173.38 0ZM191.16 0.63L191.16 0.63Q188.07 0.63 185.52-0.87 182.96-2.36 181.47-4.86 179.98-7.36 179.98-10.42L179.98-10.42Q179.98-13.51 181.47-15.99 182.96-18.47 185.52-19.97 188.07-21.46 191.12-21.46L191.12-21.46Q194.25-21.46 196.78-19.97 199.32-18.47 200.83-15.99 202.34-13.51 202.34-10.42L202.34-10.42Q202.34-7.4 200.83-4.88 199.32-2.36 196.78-0.87 194.25 0.63 191.16 0.63ZM191.12-4.34L191.12-4.34Q192.82-4.34 194.18-5.16 195.53-5.97 196.33-7.36 197.13-8.75 197.13-10.42L197.13-10.42Q197.13-12.12 196.33-13.49 195.53-14.86 194.18-15.69 192.82-16.53 191.12-16.53L191.12-16.53Q189.46-16.53 188.1-15.69 186.75-14.86 185.95-13.49 185.15-12.12 185.15-10.42L185.15-10.42Q185.15-8.75 185.95-7.36 186.75-5.97 188.1-5.16 189.46-4.34 191.12-4.34ZM211.75 0L206.29 0 206.29-20.83 211.23-20.83 211.23-17.19Q212.3-19.03 214-20.03 215.7-21.04 218-21.04L218-21.04 219.21-16.11Q218.55-16.32 217.72-16.32L217.72-16.32Q215.01-16.32 213.38-14.58 211.75-12.85 211.75-9.65L211.75-9.65 211.75 0ZM240.49 0L235.04 0 235.04-16.46 230.94-16.46 230.94-20.83 235.14-20.83 235.14-27.78 240.39-27.78 240.39-20.83 244.8-20.83 244.8-16.46 240.49-16.46 240.49 0ZM253.68 0L248.23 0 248.23-33.33 253.68-33.33 253.68-18.92Q254.83-20.17 256.34-20.82 257.85-21.46 259.55-21.46L259.55-21.46Q261.77-21.46 263.7-20.4 265.63-19.34 266.83-17.29 268.02-15.24 268.02-12.36L268.02-12.36 268.02 0 262.54 0 262.54-11.63Q262.54-13.54 261.39-15.03 260.25-16.53 258.13-16.53L258.13-16.53Q256.39-16.53 255.04-15.33 253.68-14.13 253.68-11.7L253.68-11.7 253.68 0ZM283.26 0.63L283.26 0.63Q279.83 0.63 277.17-0.83 274.51-2.29 273.04-4.84 271.56-7.4 271.56-10.63L271.56-10.63Q271.56-13.75 273-16.18 274.44-18.61 276.91-20.03 279.37-21.46 282.36-21.46L282.36-21.46Q285.42-21.46 287.83-20.07 290.24-18.68 291.67-16.27 293.09-13.85 293.09-10.8L293.09-10.8 293.09-8.82 280.14-8.82Q279.27-8.82 278.44-8.92 277.6-9.03 276.77-9.17L276.77-9.17Q277.19-6.91 278.96-5.47 280.73-4.03 283.4-4.03L283.4-4.03Q285.38-4.03 286.98-4.84 288.58-5.66 289.62-6.91L289.62-6.91 290.87-1.81Q289.31-0.59 287.36 0.02 285.42 0.63 283.26 0.63ZM276.63-12.53L276.63-12.53Q278.4-12.88 280.14-12.88L280.14-12.88 284.62-12.88Q285.56-12.88 286.39-12.83 287.22-12.78 287.99-12.6L287.99-12.6Q287.47-14.62 285.95-15.83 284.44-17.05 282.33-17.05L282.33-17.05Q280.24-17.05 278.72-15.8 277.19-14.55 276.63-12.53ZM315.13 0L309.68 0 309.68-16.46 305.59-16.46 305.59-20.83 309.79-20.83 309.79-26.32Q309.79-29.97 311.9-31.86 314.02-33.75 317.11-33.75L317.11-33.75Q318.26-33.75 319.35-33.49 320.45-33.23 321.31-32.67L321.31-32.67 320.2-28.09Q319.06-29.44 317.53-29.44L317.53-29.44Q316.63-29.44 315.83-28.8 315.03-28.16 315.03-26.39L315.03-26.39 315.03-20.83 319.44-20.83 319.44-16.46 315.13-16.46 315.13 0ZM330.9 0.63L330.9 0.63Q328.71 0.63 326.76-0.45 324.82-1.53 323.64-3.56 322.46-5.59 322.46-8.51L322.46-8.51 322.46-20.83 327.91-20.83 327.91-9.24Q327.91-7.29 329.07-5.82 330.24-4.34 332.32-4.34L332.32-4.34Q334.05-4.34 335.41-5.57 336.76-6.81 336.76-9.13L336.76-9.13 336.76-20.83 342.25-20.83 342.25 0 337.25 0 337.25-2.5Q336.14-0.97 334.47-0.17 332.8 0.63 330.9 0.63ZM355.23 0L349.78 0 349.78-16.46 345.68-16.46 345.68-20.83 349.89-20.83 349.89-27.78 355.13-27.78 355.13-20.83 359.54-20.83 359.54-16.46 355.23-16.46 355.23 0ZM370.99 0.63L370.99 0.63Q368.81 0.63 366.86-0.45 364.92-1.53 363.74-3.56 362.56-5.59 362.56-8.51L362.56-8.51 362.56-20.83 368.01-20.83 368.01-9.24Q368.01-7.29 369.17-5.82 370.33-4.34 372.42-4.34L372.42-4.34Q374.15-4.34 375.51-5.57 376.86-6.81 376.86-9.13L376.86-9.13 376.86-20.83 382.35-20.83 382.35 0 377.35 0 377.35-2.5Q376.24-0.97 374.57-0.17 372.9 0.63 370.99 0.63ZM392.9 0L387.45 0 387.45-20.83 392.38-20.83 392.38-17.19Q393.46-19.03 395.16-20.03 396.86-21.04 399.15-21.04L399.15-21.04 400.37-16.11Q399.71-16.32 398.87-16.32L398.87-16.32Q396.17-16.32 394.53-14.58 392.9-12.85 392.9-9.65L392.9-9.65 392.9 0ZM413.91 0.63L413.91 0.63Q410.47 0.63 407.81-0.83 405.16-2.29 403.68-4.84 402.2-7.4 402.2-10.63L402.2-10.63Q402.2-13.75 403.65-16.18 405.09-18.61 407.55-20.03 410.02-21.46 413-21.46L413-21.46Q416.06-21.46 418.47-20.07 420.89-18.68 422.31-16.27 423.73-13.85 423.73-10.8L423.73-10.8 423.73-8.82 410.78-8.82Q409.91-8.82 409.08-8.92 408.25-9.03 407.41-9.17L407.41-9.17Q407.83-6.91 409.6-5.47 411.37-4.03 414.04-4.03L414.04-4.03Q416.02-4.03 417.62-4.84 419.22-5.66 420.26-6.91L420.26-6.91 421.51-1.81Q419.95-0.59 418 0.02 416.06 0.63 413.91 0.63ZM407.27-12.53L407.27-12.53Q409.04-12.88 410.78-12.88L410.78-12.88 415.26-12.88Q416.2-12.88 417.03-12.83 417.86-12.78 418.63-12.6L418.63-12.6Q418.11-14.62 416.6-15.83 415.09-17.05 412.97-17.05L412.97-17.05Q410.89-17.05 409.36-15.8 407.83-14.55 407.27-12.53Z" opacity="1" transform="matrix(1,0,0,1,0,0)" fill="#836fff" class="slogan-text-1" data-fill-palette-color="secondary" id="text-1"></path></svg></g></svg></g></svg></g></svg></g></svg></g><defs></defs></svg><rect width="395.52" height="106.13691728756596" fill="none" stroke="none" visibility="hidden"></rect></g></svg></g></svg>