<svg xmlns="http://www.w3.org/2000/svg" version="1.1" xmlns:xlink="http://www.w3.org/1999/xlink" xmlns:svgjs="http://svgjs.dev/svgjs" width="2000" height="1247" viewBox="0 0 2000 1247"><g transform="matrix(1,0,0,1,-1.2121212121212466,0.5048582995951847)"><svg viewBox="0 0 396 247" data-background-color="#ffffff" preserveAspectRatio="xMidYMid meet" height="1247" width="2000" xmlns="http://www.w3.org/2000/svg" xmlns:xlink="http://www.w3.org/1999/xlink"><g id="tight-bounds" transform="matrix(1,0,0,1,0.2400000000000091,-0.09999999999999432)"><svg viewBox="0 0 395.52 247.2" height="247.2" width="395.52"><g><svg></svg></g><g><svg viewBox="0 0 395.52 247.2" height="247.2" width="395.52"><g transform="matrix(1,0,0,1,75.54432,47.33741567999999)"><svg viewBox="0 0 244.43135999999998 152.52516864" height="152.52516864" width="244.43135999999998"><g><svg viewBox="0 0 244.43135999999998 152.52516864" height="152.52516864" width="244.43135999999998"><g><svg viewBox="0 0 244.43135999999998 152.52516864" height="152.52516864" width="244.43135999999998"><g id="textblocktransform"><svg viewBox="0 0 244.43135999999998 152.52516864" height="152.52516864" width="244.43135999999998" id="textblock"><g><svg viewBox="0 0 244.43135999999998 152.52516864" height="152.52516864" width="244.43135999999998"><g transform="matrix(1,0,0,1,0,0)"><svg width="244.43135999999998" viewBox="1.67 -31.88 52.08 32.51" height="152.52516864" data-palette-color="#211951"><path d="M10-27.71L1.67-27.71 1.67-31.25 22.29-31.25 22.29-27.71 13.96-27.71 13.96 0 10 0 10-27.71ZM42.32 0.63L42.32 0.63Q38.92 0.63 35.97-0.64 33.02-1.91 30.78-4.15 28.54-6.39 27.29-9.32 26.04-12.26 26.04-15.63L26.04-15.63Q26.04-18.99 27.31-21.93 28.57-24.86 30.81-27.1 33.05-29.34 36-30.61 38.96-31.88 42.36-31.88L42.36-31.88Q45.69-31.88 48.61-30.64 51.53-29.41 53.75-27.26L53.75-27.26 52.6-22.47Q51-25.03 48.31-26.58 45.62-28.13 42.36-28.13L42.36-28.13Q38.92-28.13 36.16-26.44 33.4-24.76 31.77-21.93 30.14-19.1 30.14-15.63L30.14-15.63Q30.14-12.22 31.75-9.38 33.37-6.53 36.13-4.83 38.89-3.13 42.32-3.13L42.32-3.13Q44.27-3.13 46.02-3.59 47.78-4.06 49.23-4.93L49.23-4.93 49.23-13.13 40.62-13.13 40.62-16.67 53.05-16.67 53.05-2.92Q50.94-1.15 48.14-0.26 45.34 0.63 42.32 0.63Z" opacity="1" transform="matrix(1,0,0,1,0,0)" fill="#211951" class="wordmark-text-0" data-fill-palette-color="primary" id="text-0"></path></svg></g></svg></g></svg></g></svg></g></svg></g></svg></g><g><path d="M245.816 0c68.262 0 123.6 55.338 123.6 123.6 0 68.262-55.338 123.6-123.6 123.6-30.486 0-58.394-11.037-79.947-29.334l11.1 0c19.301 14.12 43.1 22.456 68.847 22.457 64.464 0 116.723-52.258 116.722-116.723 0-64.464-52.258-116.723-116.722-116.723-25.746 0-49.546 8.336-68.847 22.457h-11.1c21.552-18.296 49.46-29.334 79.947-29.334z" fill="#211951" stroke="transparent" data-fill-palette-color="tertiary"></path></g></svg></g><defs></defs></svg><rect width="395.52" height="247.2" fill="none" stroke="none" visibility="hidden"></rect></g></svg></g></svg>